<?xml version="1.0" encoding="utf-8"?>
<!-- Generator: Adobe Illustrator 23.0.1, SVG Export Plug-In . SVG Version: 6.00 Build 0)  -->
<svg version="1.1" id="Layer_1" xmlns="http://www.w3.org/2000/svg" xmlns:xlink="http://www.w3.org/1999/xlink" x="0px" y="0px"
	 viewBox="0 0 389 233.4" style="enable-background:new 0 0 389 233.4;" xml:space="preserve">
<style type="text/css">
	.st0{fill:#1F2421;}
	.st1{font-family:'Montserrat-Bold';}
	.st2{font-size:16.0411px;}
	.st3{fill:#08415C;}
	.st4{font-size:33.4189px;}
	.st5{fill:#407A67;}
	.st6{fill:#AAAAAA;}
</style>
<g>
	<text transform="matrix(1 0 0 1 91.4024 30.9229)" class="st0 st1 st2">of Washington and Lee students </text>
	<text transform="matrix(1 0 0 1 91.4024 50.1729)" class="st0 st1 st2">major within the Williams School.</text>
	<text transform="matrix(1 0 0 1 12.5342 45.6211)" class="st3 st1 st4">46%</text>
</g>
<g>
	<ellipse class="st5" cx="30.93" cy="67.33" rx="6.67" ry="6.35"/>
	<path class="st5" d="M40.43,79.26c-5.14-2.86-8.23-2.85-9.57-2.61c-1.34-0.24-4.43-0.24-9.57,2.61
		c-7.95,4.42-7.17,17.55-7.17,17.55s0,5.58,3.19,5.58c0,0,3.99,0.8,3.99-3.99c0,0-2.39-3.99,1.6-11.17l-0.8,46.27
		c0,0,3.19,5.58,7.98,0v-25.52h1.6v25.53c4.79,5.58,7.98,0,7.98,0l-0.8-46.27c3.99,7.18,1.6,11.17,1.6,11.17
		c0,4.79,3.99,3.99,3.99,3.99c3.19,0,3.19-5.58,3.19-5.58S48.39,83.68,40.43,79.26z"/>
</g>
<g>
	<ellipse class="st5" cx="67.03" cy="67.33" rx="6.67" ry="6.35"/>
	<path class="st5" d="M76.53,79.26c-5.14-2.86-8.23-2.85-9.57-2.61c-1.34-0.24-4.43-0.24-9.57,2.61
		c-7.95,4.42-7.18,17.55-7.18,17.55s0,5.58,3.19,5.58c0,0,3.99,0.8,3.99-3.99c0,0-2.39-3.99,1.6-11.17l-0.8,46.27
		c0,0,3.19,5.58,7.98,0v-25.52h1.6v25.53c4.79,5.58,7.98,0,7.98,0l-0.8-46.27c3.99,7.18,1.6,11.17,1.6,11.17
		c0,4.79,3.99,3.99,3.99,3.99c3.19,0,3.19-5.58,3.19-5.58S84.48,83.68,76.53,79.26z"/>
</g>
<g>
	<ellipse class="st5" cx="103.12" cy="67.33" rx="6.67" ry="6.35"/>
	<path class="st5" d="M112.62,79.26c-5.14-2.86-8.23-2.85-9.57-2.61c-1.34-0.24-4.43-0.24-9.57,2.61
		c-7.95,4.42-7.18,17.55-7.18,17.55s0,5.58,3.19,5.58c0,0,3.99,0.8,3.99-3.99c0,0-2.39-3.99,1.6-11.17l-0.8,46.27
		c0,0,3.19,5.58,7.98,0v-25.52h1.6v25.53c4.79,5.58,7.98,0,7.98,0l-0.8-46.27c3.99,7.18,1.6,11.17,1.6,11.17
		c0,4.79,3.99,3.99,3.99,3.99c3.19,0,3.19-5.58,3.19-5.58S120.57,83.68,112.62,79.26z"/>
</g>
<g>
	<ellipse class="st5" cx="139.21" cy="67.33" rx="6.67" ry="6.35"/>
	<path class="st5" d="M148.72,79.26c-5.14-2.86-8.23-2.85-9.57-2.61c-1.34-0.24-4.43-0.24-9.57,2.61
		c-7.95,4.42-7.18,17.55-7.18,17.55s0,5.58,3.19,5.58c0,0,3.99,0.8,3.99-3.99c0,0-2.39-3.99,1.6-11.17l-0.8,46.27
		c0,0,3.19,5.58,7.98,0v-25.52h1.6v25.53c4.79,5.58,7.98,0,7.98,0l-0.8-46.27c3.99,7.18,1.6,11.17,1.6,11.17
		c0,4.79,3.99,3.99,3.99,3.99c3.19,0,3.19-5.58,3.19-5.58S156.66,83.68,148.72,79.26z"/>
</g>
<g>
	<ellipse class="st5" cx="175.3" cy="67.33" rx="6.67" ry="6.35"/>
	<path class="st5" d="M184.81,79.26c-5.14-2.86-8.23-2.85-9.57-2.61c-1.34-0.24-4.43-0.24-9.57,2.61
		c-7.95,4.42-7.18,17.55-7.18,17.55s0,5.58,3.19,5.58c0,0,3.99,0.8,3.99-3.99c0,0-2.39-3.99,1.6-11.17l-0.8,46.27
		c0,0,3.19,5.58,7.98,0v-25.52h1.6v25.53c4.79,5.58,7.98,0,7.98,0l-0.8-46.27c3.99,7.18,1.6,11.17,1.6,11.17
		c0,4.79,3.99,3.99,3.99,3.99c3.19,0,3.19-5.58,3.19-5.58S192.75,83.68,184.81,79.26z"/>
</g>
<g>
	<ellipse class="st5" cx="211.4" cy="67.33" rx="6.67" ry="6.35"/>
	<path class="st5" d="M220.9,79.26c-5.14-2.86-8.23-2.85-9.57-2.61c-1.34-0.24-4.43-0.24-9.57,2.61
		c-7.95,4.42-7.18,17.55-7.18,17.55s0,5.58,3.19,5.58c0,0,3.99,0.8,3.99-3.99c0,0-2.39-3.99,1.6-11.17l-0.8,46.27
		c0,0,3.19,5.58,7.98,0v-25.52h1.6v25.53c4.79,5.58,7.98,0,7.98,0l-0.8-46.27c3.99,7.18,1.6,11.17,1.6,11.17
		c0,4.79,3.99,3.99,3.99,3.99c3.19,0,3.19-5.58,3.19-5.58S228.85,83.68,220.9,79.26z"/>
</g>
<g>
	<ellipse class="st5" cx="247.49" cy="67.33" rx="6.67" ry="6.35"/>
	<path class="st5" d="M256.99,79.26c-5.14-2.86-8.23-2.85-9.57-2.61c-1.34-0.24-4.43-0.24-9.57,2.61
		c-7.95,4.42-7.18,17.55-7.18,17.55s0,5.58,3.19,5.58c0,0,3.99,0.8,3.99-3.99c0,0-2.39-3.99,1.6-11.17l-0.8,46.27
		c0,0,3.19,5.58,7.98,0v-25.52h1.6v25.53c4.79,5.58,7.98,0,7.98,0l-0.8-46.27c3.99,7.18,1.6,11.17,1.6,11.17
		c0,4.79,3.99,3.99,3.99,3.99c3.19,0,3.19-5.58,3.19-5.58S264.94,83.68,256.99,79.26z"/>
</g>
<g>
	<ellipse class="st5" cx="283.58" cy="67.33" rx="6.67" ry="6.35"/>
	<path class="st5" d="M293.08,79.26c-5.14-2.86-8.23-2.85-9.57-2.61c-1.34-0.24-4.43-0.24-9.57,2.61
		c-7.95,4.42-7.18,17.55-7.18,17.55s0,5.58,3.19,5.58c0,0,3.99,0.8,3.99-3.99c0,0-2.39-3.99,1.6-11.17l-0.8,46.27
		c0,0,3.19,5.58,7.98,0v-25.52h1.6v25.53c4.79,5.58,7.98,0,7.98,0l-0.8-46.27c3.99,7.18,1.6,11.17,1.6,11.17
		c0,4.79,3.99,3.99,3.99,3.99c3.19,0,3.19-5.58,3.19-5.58S301.04,83.68,293.08,79.26z"/>
</g>
<g>
	<ellipse class="st5" cx="319.67" cy="67.33" rx="6.67" ry="6.35"/>
	<path class="st5" d="M329.17,79.26c-5.14-2.86-8.23-2.85-9.57-2.61c-1.34-0.24-4.43-0.24-9.57,2.61
		c-7.95,4.42-7.18,17.55-7.18,17.55s0,5.58,3.19,5.58c0,0,3.99,0.8,3.99-3.99c0,0-2.39-3.99,1.6-11.17l-0.8,46.27
		c0,0,3.19,5.58,7.98,0v-25.52h1.6v25.53c4.79,5.58,7.98,0,7.98,0l-0.8-46.27c3.99,7.18,1.6,11.17,1.6,11.17
		c0,4.79,3.99,3.99,3.99,3.99c3.19,0,3.19-5.58,3.19-5.58S337.13,83.68,329.17,79.26z"/>
</g>
<g>
	<ellipse class="st6" cx="355.77" cy="67.33" rx="6.67" ry="6.35"/>
	<path class="st6" d="M365.26,79.26c-5.14-2.86-8.23-2.85-9.57-2.61c-1.34-0.24-4.43-0.24-9.57,2.61
		c-7.95,4.42-7.18,17.55-7.18,17.55s0,5.58,3.19,5.58c0,0,3.99,0.8,3.99-3.99c0,0-2.39-3.99,1.6-11.17l-0.8,46.27
		c0,0,3.19,5.58,7.98,0v-25.52h1.6v25.53c4.79,5.58,7.98,0,7.98,0l-0.8-46.27c3.99,7.18,1.6,11.17,1.6,11.17
		c0,4.79,3.99,3.99,3.99,3.99c3.19,0,3.19-5.58,3.19-5.58S373.22,83.68,365.26,79.26z"/>
</g>
<g>
	<ellipse class="st6" cx="355.77" cy="146.19" rx="6.67" ry="6.35"/>
	<path class="st6" d="M365.26,158.13c-5.14-2.86-8.23-2.85-9.57-2.61c-1.34-0.24-4.43-0.24-9.57,2.61
		c-7.95,4.42-7.18,17.55-7.18,17.55s0,5.58,3.19,5.58c0,0,3.99,0.8,3.99-3.99c0,0-2.39-3.99,1.6-11.17l-0.8,46.27
		c0,0,3.19,5.58,7.98,0v-25.53h1.6v25.53c4.79,5.58,7.98,0,7.98,0l-0.8-46.27c3.99,7.18,1.6,11.17,1.6,11.17
		c0,4.79,3.99,3.99,3.99,3.99c3.19,0,3.19-5.58,3.19-5.58S373.22,162.54,365.26,158.13z"/>
</g>
<g>
	<ellipse class="st6" cx="319.67" cy="146.19" rx="6.67" ry="6.35"/>
	<path class="st6" d="M329.17,158.13c-5.14-2.86-8.23-2.85-9.57-2.61c-1.34-0.24-4.43-0.24-9.57,2.61
		c-7.95,4.42-7.18,17.55-7.18,17.55s0,5.58,3.19,5.58c0,0,3.99,0.8,3.99-3.99c0,0-2.39-3.99,1.6-11.17l-0.8,46.27
		c0,0,3.19,5.58,7.98,0v-25.53h1.6v25.53c4.79,5.58,7.98,0,7.98,0l-0.8-46.27c3.99,7.18,1.6,11.17,1.6,11.17
		c0,4.79,3.99,3.99,3.99,3.99c3.19,0,3.19-5.58,3.19-5.58S337.13,162.54,329.17,158.13z"/>
</g>
<g>
	<ellipse class="st6" cx="283.58" cy="146.19" rx="6.67" ry="6.35"/>
	<path class="st6" d="M293.08,158.13c-5.14-2.86-8.23-2.85-9.57-2.61c-1.34-0.24-4.43-0.24-9.57,2.61
		c-7.95,4.42-7.18,17.55-7.18,17.55s0,5.58,3.19,5.58c0,0,3.99,0.8,3.99-3.99c0,0-2.39-3.99,1.6-11.17l-0.8,46.27
		c0,0,3.19,5.58,7.98,0v-25.53h1.6v25.53c4.79,5.58,7.98,0,7.98,0l-0.8-46.27c3.99,7.18,1.6,11.17,1.6,11.17
		c0,4.79,3.99,3.99,3.99,3.99c3.19,0,3.19-5.58,3.19-5.58S301.04,162.54,293.08,158.13z"/>
</g>
<g>
	<ellipse class="st6" cx="247.49" cy="146.19" rx="6.67" ry="6.35"/>
	<path class="st6" d="M256.99,158.13c-5.14-2.86-8.23-2.85-9.57-2.61c-1.34-0.24-4.43-0.24-9.57,2.61
		c-7.95,4.42-7.18,17.55-7.18,17.55s0,5.58,3.19,5.58c0,0,3.99,0.8,3.99-3.99c0,0-2.39-3.99,1.6-11.17l-0.8,46.27
		c0,0,3.19,5.58,7.98,0v-25.53h1.6v25.53c4.79,5.58,7.98,0,7.98,0l-0.8-46.27c3.99,7.18,1.6,11.17,1.6,11.17
		c0,4.79,3.99,3.99,3.99,3.99c3.19,0,3.19-5.58,3.19-5.58S264.94,162.54,256.99,158.13z"/>
</g>
<g>
	<ellipse class="st6" cx="211.4" cy="146.19" rx="6.67" ry="6.35"/>
	<path class="st6" d="M220.9,158.13c-5.14-2.86-8.23-2.85-9.57-2.61c-1.34-0.24-4.43-0.24-9.57,2.61
		c-7.95,4.42-7.18,17.55-7.18,17.55s0,5.58,3.19,5.58c0,0,3.99,0.8,3.99-3.99c0,0-2.39-3.99,1.6-11.17l-0.8,46.27
		c0,0,3.19,5.58,7.98,0v-25.53h1.6v25.53c4.79,5.58,7.98,0,7.98,0l-0.8-46.27c3.99,7.18,1.6,11.17,1.6,11.17
		c0,4.79,3.99,3.99,3.99,3.99c3.19,0,3.19-5.58,3.19-5.58S228.85,162.54,220.9,158.13z"/>
</g>
<g>
	<ellipse class="st6" cx="175.3" cy="146.19" rx="6.67" ry="6.35"/>
	<path class="st6" d="M184.81,158.13c-5.14-2.86-8.23-2.85-9.57-2.61c-1.34-0.24-4.43-0.24-9.57,2.61
		c-7.95,4.42-7.18,17.55-7.18,17.55s0,5.58,3.19,5.58c0,0,3.99,0.8,3.99-3.99c0,0-2.39-3.99,1.6-11.17l-0.8,46.27
		c0,0,3.19,5.58,7.98,0v-25.53h1.6v25.53c4.79,5.58,7.98,0,7.98,0l-0.8-46.27c3.99,7.18,1.6,11.17,1.6,11.17
		c0,4.79,3.99,3.99,3.99,3.99c3.19,0,3.19-5.58,3.19-5.58S192.75,162.54,184.81,158.13z"/>
</g>
<g>
	<ellipse class="st6" cx="139.21" cy="146.19" rx="6.67" ry="6.35"/>
	<path class="st6" d="M148.72,158.13c-5.14-2.86-8.23-2.85-9.57-2.61c-1.34-0.24-4.43-0.24-9.57,2.61
		c-7.95,4.42-7.18,17.55-7.18,17.55s0,5.58,3.19,5.58c0,0,3.99,0.8,3.99-3.99c0,0-2.39-3.99,1.6-11.17l-0.8,46.27
		c0,0,3.19,5.58,7.98,0v-25.53h1.6v25.53c4.79,5.58,7.98,0,7.98,0l-0.8-46.27c3.99,7.18,1.6,11.17,1.6,11.17
		c0,4.79,3.99,3.99,3.99,3.99c3.19,0,3.19-5.58,3.19-5.58S156.66,162.54,148.72,158.13z"/>
</g>
<g>
	<ellipse class="st6" cx="103.12" cy="146.19" rx="6.67" ry="6.35"/>
	<path class="st6" d="M112.62,158.13c-5.14-2.86-8.23-2.85-9.57-2.61c-1.34-0.24-4.43-0.24-9.57,2.61
		c-7.95,4.42-7.18,17.55-7.18,17.55s0,5.58,3.19,5.58c0,0,3.99,0.8,3.99-3.99c0,0-2.39-3.99,1.6-11.17l-0.8,46.27
		c0,0,3.19,5.58,7.98,0v-25.53h1.6v25.53c4.79,5.58,7.98,0,7.98,0l-0.8-46.27c3.99,7.18,1.6,11.17,1.6,11.17
		c0,4.79,3.99,3.99,3.99,3.99c3.19,0,3.19-5.58,3.19-5.58S120.57,162.54,112.62,158.13z"/>
</g>
<g>
	<ellipse class="st6" cx="67.03" cy="146.19" rx="6.67" ry="6.35"/>
	<path class="st6" d="M76.53,158.13c-5.14-2.86-8.23-2.85-9.57-2.61c-1.34-0.24-4.43-0.24-9.57,2.61
		c-7.95,4.42-7.18,17.55-7.18,17.55s0,5.58,3.19,5.58c0,0,3.99,0.8,3.99-3.99c0,0-2.39-3.99,1.6-11.17l-0.8,46.27
		c0,0,3.19,5.58,7.98,0v-25.53h1.6v25.53c4.79,5.58,7.98,0,7.98,0l-0.8-46.27c3.99,7.18,1.6,11.17,1.6,11.17
		c0,4.79,3.99,3.99,3.99,3.99c3.19,0,3.19-5.58,3.19-5.58S84.48,162.54,76.53,158.13z"/>
</g>
<g>
	<ellipse class="st6" cx="30.93" cy="146.19" rx="6.67" ry="6.35"/>
	<path class="st6" d="M40.43,158.13c-5.14-2.86-8.23-2.85-9.57-2.61c-1.34-0.24-4.43-0.24-9.57,2.61
		c-7.95,4.42-7.17,17.54-7.17,17.54s0,5.58,3.19,5.58c0,0,3.99,0.8,3.99-3.99c0,0-2.39-3.99,1.6-11.17l-0.8,46.27
		c0,0,3.19,5.58,7.98,0v-25.53h1.6v25.53c4.79,5.58,7.98,0,7.98,0l-0.8-46.27c3.99,7.18,1.6,11.17,1.6,11.17
		c0,4.79,3.99,3.99,3.99,3.99c3.19,0,3.19-5.58,3.19-5.58S48.39,162.54,40.43,158.13z"/>
</g>
</svg>
