<?xml version="1.0" encoding="utf-8"?>
<!-- Generator: Adobe Illustrator 23.0.1, SVG Export Plug-In . SVG Version: 6.00 Build 0)  -->
<svg version="1.1" id="Layer_1" xmlns="http://www.w3.org/2000/svg" xmlns:xlink="http://www.w3.org/1999/xlink" x="0px" y="0px"
	 viewBox="0 0 600.08 431.17" style="enable-background:new 0 0 600.08 431.17;" xml:space="preserve">
<style type="text/css">
	.st0{fill:#1F2421;}
	.st1{font-family:'Montserrat-Medium';}
	.st2{font-size:12px;}
	.st3{font-family:'Montserrat-Thin';}
	.st4{font-family:'Montserrat-Black';}
	.st5{font-family:'Lora-Regular';}
	.st6{font-size:13px;}
	.st7{fill:#08425C;}
	.st8{fill:#AAAAAA;}
	.st9{fill:#407967;}
	.st10{clip-path:url(#SVGID_2_);fill:#1F2421;}
	.st11{clip-path:url(#SVGID_2_);fill:#08415C;}
	.st12{clip-path:url(#SVGID_2_);fill:#407A67;}
	.st13{clip-path:url(#SVGID_2_);fill:#AAAAAA;}
	.st14{clip-path:url(#SVGID_2_);fill:#F2F2F2;}
	.st15{fill:#08415C;}
	.st16{fill:#407A67;}
	.st17{font-size:18px;}
</style>
<text transform="matrix(1 0 0 1 92.3166 398.3999)"><tspan x="0" y="0" class="st0 st1 st2">|</tspan><tspan x="3.59" y="0" class="st0 st3 st2"> </tspan><tspan x="6.59" y="0" class="st0 st4 st2">Top 1%</tspan></text>
<text transform="matrix(1 0 0 1 106.5365 334.308)" class="st5 st6">13%</text>
<rect x="90.45" y="341.61" class="st7" width="53.67" height="33.17"/>
<text transform="matrix(1 0 0 1 203.6129 271.7866)" class="st5 st6">38%</text>
<text transform="matrix(1 0 0 1 189.1349 398.4003)"><tspan x="0" y="0" class="st0 st1 st2">|</tspan><tspan x="3.59" y="0" class="st0 st4 st2"> Top 5%</tspan></text>
<rect x="188.71" y="277.84" class="st7" width="53.67" height="96.94"/>
<text transform="matrix(1 0 0 1 301.6018 240.3566)" class="st5 st6">50%</text>
<text transform="matrix(1 0 0 1 284.3936 398.4003)"><tspan x="0" y="0" class="st0 st1 st2">|</tspan><tspan x="3.59" y="0" class="st0 st4 st2"> Top 10%</tspan></text>
<rect x="286.98" y="247.22" class="st7" width="53.67" height="127.56"/>
<text transform="matrix(1 0 0 1 400.0462 206.9635)" class="st5 st6">63%</text>
<text transform="matrix(1 0 0 1 381.5178 398.4001)"><tspan x="0" y="0" class="st0 st1 st2">|</tspan><tspan x="3.59" y="0" class="st0 st4 st2"> Top 20%</tspan></text>
<rect x="385.24" y="214.06" class="st8" width="53.67" height="160.72"/>
<text transform="matrix(1 0 0 1 497.0083 346.1473)" class="st5 st6">8.5%</text>
<text transform="matrix(1 0 0 1 467.2607 399.9328)"><tspan x="0" y="0" class="st0 st1 st2">|</tspan><tspan x="3.59" y="0" class="st0 st4 st2"> Bottom 20%</tspan></text>
<rect x="483.51" y="352.89" class="st9" width="53.67" height="21.69"/>
<g>
	<g>
		<defs>
			<rect id="SVGID_1_" x="616.2" y="113.93" width="288" height="576"/>
		</defs>
		<clipPath id="SVGID_2_">
			<use xlink:href="#SVGID_1_"  style="overflow:visible;"/>
		</clipPath>
		<rect x="630.1" y="125.43" class="st10" width="92" height="92"/>
		<rect x="630.1" y="240.68" class="st11" width="92" height="92"/>
		<rect x="630.1" y="355.93" class="st12" width="92" height="92"/>
		<rect x="630.1" y="471.18" class="st13" width="92" height="92"/>
		<rect x="630.1" y="586.43" class="st14" width="92" height="92"/>
		<g style="clip-path:url(#SVGID_2_);">
			<text transform="matrix(1 0 0 1 756.1988 170.9328)"><tspan x="0" y="0" class="st2" style="font-family:'Montserrat-Bold';">#1</tspan><tspan x="13.34" y="0" class="st2" style="font-family:'Montserrat-Bold';">F</tspan><tspan x="21.06" y="0" class="st2" style="font-family:'Montserrat-Bold';">2</tspan><tspan x="28.02" y="0" class="st2" style="font-family:'Montserrat-Bold';">4</tspan><tspan x="36.26" y="0" class="st2" style="font-family:'Montserrat-Bold';">21</tspan></text>
		</g>
		<g style="clip-path:url(#SVGID_2_);">
			<text transform="matrix(1 0 0 1 756.1988 286.9367)"><tspan x="0" y="0" class="st2" style="font-family:'Montserrat-Bold';">#08</tspan><tspan x="24.71" y="0" class="st2" style="font-family:'Montserrat-Bold';">4</tspan><tspan x="32.69" y="0" class="st2" style="font-family:'Montserrat-Bold';">15C</tspan></text>
		</g>
		<g style="clip-path:url(#SVGID_2_);">
			<text transform="matrix(1 0 0 1 756.1988 401.9328)"><tspan x="0" y="0" class="st2" style="font-family:'Montserrat-Bold';">#4</tspan><tspan x="16.91" y="0" class="st2" style="font-family:'Montserrat-Bold';">0</tspan><tspan x="25.02" y="0" class="st2" style="font-family:'Montserrat-Bold';">7</tspan><tspan x="31.74" y="0" class="st2" style="font-family:'Montserrat-Bold';">A</tspan><tspan x="40.81" y="0" class="st2" style="font-family:'Montserrat-Bold';">6</tspan><tspan x="48.41" y="0" class="st2" style="font-family:'Montserrat-Bold';">7</tspan></text>
		</g>
		<g style="clip-path:url(#SVGID_2_);">
			<text transform="matrix(1 0 0 1 756.1988 516.9289)"><tspan x="0" y="0" class="st2" style="font-family:'Montserrat-Bold';">#</tspan><tspan x="8.64" y="0" class="st2" style="font-family:'Montserrat-Bold';">AAAAA</tspan><tspan x="55.98" y="0" class="st2" style="font-family:'Montserrat-Bold';">A</tspan></text>
		</g>
		<g style="clip-path:url(#SVGID_2_);">
			<text transform="matrix(1 0 0 1 756.1988 631.925)"><tspan x="0" y="0" class="st2" style="font-family:'Montserrat-Bold';">#</tspan><tspan x="8.64" y="0" class="st2" style="font-family:'Montserrat-Bold';">F</tspan><tspan x="16.36" y="0" class="st2" style="font-family:'Montserrat-Bold';">2</tspan><tspan x="23.44" y="0" class="st2" style="font-family:'Montserrat-Bold';">F</tspan><tspan x="31.16" y="0" class="st2" style="font-family:'Montserrat-Bold';">2</tspan><tspan x="38.24" y="0" class="st2" style="font-family:'Montserrat-Bold';">F</tspan><tspan x="45.97" y="0" class="st2" style="font-family:'Montserrat-Bold';">2</tspan></text>
		</g>
	</g>
</g>
<path class="st0" d="M573.71,373.78H67.38V121.84c0-0.64-1-0.64-1,0v252.44c0,0.14,0.05,0.24,0.12,0.32
	c0.01,0.01,0.02,0.02,0.03,0.03c0.01,0.01,0.02,0.02,0.03,0.02c0.08,0.07,0.18,0.12,0.32,0.12h506.83
	C574.36,374.78,574.36,373.78,573.71,373.78z"/>
<g>
	<rect x="438.91" y="105.11" class="st15" width="16.25" height="16.25"/>
	<text transform="matrix(1 0 0 1 463.0277 113.2309)"><tspan x="0" y="0" class="st1 st2">among the higest</tspan><tspan x="0" y="14.4" class="st1 st2">compared to</tspan><tspan x="0" y="28.8" class="st1 st2">other elite schools</tspan></text>
</g>
<g>
	<rect x="283.98" y="103.81" class="st16" width="16.25" height="16.25"/>
	<text transform="matrix(1 0 0 1 308.1004 111.9328)"><tspan x="0" y="0" class="st1 st2">among the lowest</tspan><tspan x="0" y="14.4" class="st1 st2">in Virginia</tspan></text>
</g>
<text transform="matrix(1 0 0 1 20.2076 48.1047)" class="st0 st4 st17">W&amp;L Grad Earnings</text>
</svg>
