<?xml version="1.0" encoding="utf-8"?>
<!-- Generator: Adobe Illustrator 23.0.1, SVG Export Plug-In . SVG Version: 6.00 Build 0)  -->
<svg version="1.1" id="Layer_1" xmlns="http://www.w3.org/2000/svg" xmlns:xlink="http://www.w3.org/1999/xlink" x="0px" y="0px"
	 viewBox="0 0 1280 1024" style="enable-background:new 0 0 1280 1024;" xml:space="preserve">
<style type="text/css">
	.st0{fill:#FDB87C;}
	.st1{fill:#F4B07D;}
	.st2{fill:#FFB87D;}
	.st3{fill:#313533;}
	.st4{fill:#A3A3A3;}
	.st5{fill:#610F10;}
	.st6{fill:#FFB67C;}
	.st7{fill:#08425C;}
	.st8{fill:#407967;}
	.st9{fill:#F9D755;}
	.st10{fill:#FEB67F;}
	.st11{fill:#1F2421;}
	.st12{fill:#EFAB7D;}
	.st13{fill:#FCB480;}
	.st14{fill:#F2F2F2;}
	.st15{clip-path:url(#SVGID_2_);fill:#1F2421;}
	.st16{clip-path:url(#SVGID_2_);fill:#08415C;}
	.st17{clip-path:url(#SVGID_2_);fill:#407A67;}
	.st18{clip-path:url(#SVGID_2_);fill:#AAAAAA;}
	.st19{clip-path:url(#SVGID_2_);fill:#F2F2F2;}
	.st20{fill:#D33333;}
	.st21{font-family:'AncientGeek';}
	.st22{font-size:53px;}
</style>
<path class="st0" d="M584.66,402.88c-0.9-0.2-1.81-0.35-2.72-0.49c-3.71-0.66-7.42-1.04-11.15-1.18c-0.27-0.16-0.55-0.31-0.82-0.49
	l-1.01-0.01c0,0,1,0,1,0c-0.05-0.03-0.11-0.06-0.16-0.1c-0.33-0.22-0.66-0.25-0.94-0.17C516,393,502.34,363.9,502.34,363.9
	l-26.51-42.34l-28.38,8.52C473,411,517,409,517,409l60.1,13.52c9.9-0.52,25.5,2.7,31.02-5.58l3.45-5.18l-4.29-10.86l-16.3-11.46
	L584.66,402.88z"/>
<g>
	<path class="st1" d="M362.65,231.94c0,0,9.59-7.19,16.78-26.36l45.54,7.19c0,0-11.98,11.98,9.59,21.57l-2.4,26.36l-50.33,11.98
		l-23.97-19.17L362.65,231.94z"/>
	<path class="st2" d="M369.84,160.04c0,0,0,69.5,33.55,69.5c0,0,35.95,4.79,40.74-76.69l-28.76-23.97l-33.55,9.59L369.84,160.04z"/>
</g>
<g>
	<path class="st3" d="M352.65,844.32c0-0.5,0.17-0.88,0.4-1.2c-2.76-2.43-6.86-3.5-10.3-2.55c-6,1.65-8.62,7.52-7.53,13.27
		c0.58,3.1,0.82,7.02,1.73,10.27c-0.11,0.1-0.22,0.2-0.32,0.3c-10.67,4.73-23.44,11.13-35.72,12.48
		c-4.79-7.16-17.39-8.18-19.09,2.32c-5.4,33.26,39.84,15.17,60.22,6.25c0.18-0.31,0.43-0.6,0.84-0.82
		c6.05-3.08,10.46-7.13,12.68-12.63C355.29,862.78,352.57,853.72,352.65,844.32z"/>
	<path d="M353.92,844.27c-0.04-0.49-0.17-0.93-0.26-1.39c-0.02-0.17-0.07-0.34-0.09-0.51c-0.05-0.21-0.08-0.43-0.14-0.63
		c-0.08-0.34-0.11-0.69-0.24-1.03c-1.97-5.52-7.7-8.9-13.48-7.14c-2.27,0.69-4.54,1.31-6.86,1.83c-1.07,0.24-2.14,0.42-3.21,0.66
		c-0.11,0.02-0.17,0.03-0.25,0.05c-0.58,0.09-1.17,0.17-1.75,0.25c-5.57,0.75-10.93,4.87-10.46,11.1c0.03,0.43,0.1,0.86,0.19,1.29
		c-0.24,0.14-0.48,0.28-0.7,0.45c-5.6,4.15-11.17,8.34-16.55,12.78c-3.81,3.14-7.61,7.98-11.91,10.67c-0.9,0.37-1.73,0.85-2.48,1.44
		c-2.16,1.35-3.51,3.64-3.99,6.19c-1.45,5.32,0.61,11.44,7.56,12.82c16.59,3.28,34.85-8.34,49.77-14.63
		c6.2-2.62,12.01-4.63,14.44-11.52C355.95,859.99,354.54,851.45,353.92,844.27z"/>
	<path class="st4" d="M302.06,872.53c-1.47-2.86-4.21-4.78-7.29-5.32c-0.81,0.67-1.54,1.45-2.26,2.23c0.02,0,0.03,0.01,0.05,0.01
		c3.17-0.15,5.99,1.48,7.44,4.3C300.7,875.12,302.76,873.9,302.06,872.53z"/>
	<path class="st4" d="M309.58,868.73c-2.52-2.99-5.62-5.33-9.13-7.01c-0.68,0.54-1.34,1.1-1.99,1.67c3.68,1.62,6.83,3.96,9.43,7.03
		C308.89,871.61,310.57,869.9,309.58,868.73z"/>
	<path class="st4" d="M308.55,855.26c-0.79,0.49-1.54,1.04-2.26,1.63c3.94,1.55,8.57,3.83,8.4,8.69c-0.05,1.54,2.34,1.54,2.4,0
		C317.27,860.18,312.97,857.22,308.55,855.26z"/>
</g>
<g>
	<path class="st3" d="M389.68,844.32c0-0.5-0.17-0.88-0.4-1.2c2.76-2.43,6.86-3.5,10.3-2.55c6,1.65,8.62,7.52,7.53,13.27
		c-0.58,3.1-0.82,7.02-1.73,10.27c0.11,0.1,0.22,0.2,0.32,0.3c10.67,4.73,23.44,11.13,35.72,12.48c4.79-7.16,17.39-8.18,19.09,2.32
		c5.4,33.26-39.84,15.17-60.22,6.25c-0.18-0.31-0.43-0.6-0.84-0.82c-6.05-3.08-10.46-7.13-12.68-12.63
		C387.03,862.78,389.75,853.72,389.68,844.32z"/>
	<path d="M388.4,844.27c0.04-0.49,0.17-0.93,0.26-1.39c0.02-0.17,0.07-0.34,0.09-0.51c0.05-0.21,0.08-0.43,0.14-0.63
		c0.08-0.34,0.11-0.69,0.24-1.03c1.97-5.52,7.7-8.9,13.48-7.14c2.27,0.69,4.54,1.31,6.86,1.83c1.07,0.24,2.14,0.42,3.21,0.66
		c0.11,0.02,0.17,0.03,0.25,0.05c0.58,0.09,1.17,0.17,1.75,0.25c5.57,0.75,10.93,4.87,10.46,11.1c-0.03,0.43-0.1,0.86-0.19,1.29
		c0.24,0.14,0.48,0.28,0.7,0.45c5.6,4.15,11.17,8.34,16.55,12.78c3.81,3.14,7.61,7.98,11.91,10.67c0.9,0.37,1.73,0.85,2.48,1.44
		c2.16,1.35,3.51,3.64,3.99,6.19c1.45,5.32-0.61,11.44-7.56,12.82c-16.59,3.28-34.85-8.34-49.77-14.63
		c-6.2-2.62-12.01-4.63-14.44-11.52C386.37,859.99,387.78,851.45,388.4,844.27z"/>
	<path class="st4" d="M440.27,872.53c1.47-2.86,4.21-4.78,7.29-5.32c0.81,0.67,1.54,1.45,2.26,2.23c-0.02,0-0.03,0.01-0.05,0.01
		c-3.17-0.15-5.99,1.48-7.44,4.3C441.62,875.12,439.56,873.9,440.27,872.53z"/>
	<path class="st4" d="M432.74,868.73c2.52-2.99,5.62-5.33,9.13-7.01c0.68,0.54,1.34,1.1,1.99,1.67c-3.68,1.62-6.83,3.96-9.43,7.03
		C433.44,871.61,431.75,869.9,432.74,868.73z"/>
	<path class="st4" d="M433.78,855.26c0.79,0.49,1.54,1.04,2.26,1.63c-3.94,1.55-8.57,3.83-8.4,8.69c0.05,1.54-2.34,1.54-2.4,0
		C425.05,860.18,429.36,857.22,433.78,855.26z"/>
</g>
<path class="st5" d="M372.24,182.21c0,0-23.97-69.5,31.16-74.3c0,0,59.92,0,45.54,52.73c0,0-4.79,4.79-4.79,21.57
	c0,0-2.4,4.79-4.79-19.17s-4.79-16.78-4.79-16.78s-16.78,9.59-31.16,9.59c0,0,7.19-4.79,7.19-9.59c0,0-9.59,7.19-23.97,9.59
	c0,0,2.4-2.4,2.4-7.19c0,0-9.59,2.4-11.98,7.19C374.64,160.64,377.03,175.02,372.24,182.21z"/>
<path class="st6" d="M281.12,331c0,0-11.93,56.72-4.74,83.08l28.76,74.3l19.17-14.38l-14.38-38.35c0,0,4.79-38.35-7.19-59.92
	l14.38-31.16L281.12,331z"/>
<path class="st7" d="M319.51,462.01c0,0,95.87,23.97,129.42-9.59c0,0,19.17,19.17,26.36,21.57c0,0-23.97,74.3-23.97,93.47
	c0,0-16.78,177.35-14.38,287.6c0,0-55.12,0-57.52-4.79c-2.4-4.79,9.59-309.17,9.59-309.17h-11.98c0,0-16.78,256.44-16.78,313.96
	c0,0-38.35,2.4-55.12-9.59c0,0,14.38-230.08,7.19-287.6c0,0-4.79-52.73-14.38-71.9C297.94,485.98,312.32,478.79,319.51,462.01z"/>
<path class="st8" d="M365.05,229.54c0,0,40.74,52.73,69.5,2.4c0,0,35.95,19.17,45.54,28.76c0,0,17.91,13.31,11.91,66.31l2,19
	c0,0-19.43,16.59-41,7l-4.07-10.82c0,0-26.36,31.16,0,103.06c0,0,19.17,45.54-129.42,16.78l7.19-141.4c0,0-7.19,16.78-7.19,28.76
	c0,0-26.36,0-40.74-21.57c0,0,9.59-19.17,9.59-55.12C288.36,272.68,295.55,227.14,365.05,229.54z"/>
<g>
	<path class="st9" d="M933.43,307.2c-0.05,0.07-0.1,0.14-0.1,0.14S933.38,307.28,933.43,307.2z"/>
	<path class="st9" d="M947.75,233.37c-0.36-5.71-0.51-10.36,1.52-16.05c0.1-0.28,0.07-0.52-0.01-0.73
		c4.17-17.65,9.36-47.17,1.27-60.2c0,0-26.21-57.59-69.42-28.95c0,0-23.97,2.33-26.48,43.07c0,0-9.67,31.13,4.66,50.34
		c0,0,9.65,9.73,7.75,35.74c-2.21,4.1-2.99,8.55-3.49,13.15c-0.35,3.23-0.49,6.43,1.5,8.99c-0.02,0.58,0.47,0.96,1.03,1.02
		c0.91,0.42,1.97-0.57,1.63-1.49c2.86-7.3,6.39-16.11,11.64-22.8c0.47-0.34,0.92-0.68,1.42-1.01l21.58-2.34l16.78,0.05
		c0,0-2.46,21.56,9.49,33.58c10.43,10.49,6.26,19.11,5.03,21.13c0.77-1.22,2.98-5.15,4.21-12.24c0.31-0.1,0.58-0.34,0.65-0.79
		c1.05-6.26,1.61-12.49,2.22-18.79c0.39-4.09,1.36-6.71,4.15-9.82c1.58-1.76,2.96-2.94,4.04-5.08c0.17-0.35,0.17-0.68,0.06-0.97
		C950.9,254.06,954.08,242.44,947.75,233.37z"/>
	<path class="st9" d="M933.63,306.88c-0.02,0.03-0.04,0.06-0.05,0.08C933.6,306.94,933.61,306.92,933.63,306.88z"/>
	<path class="st9" d="M933.58,306.97c-0.06,0.09-0.11,0.18-0.15,0.23C933.47,307.14,933.52,307.07,933.58,306.97z"/>
</g>
<path class="st10" d="M834.47,529.95c0,0-4.97,64.7-17.03,91.03c0,0-24.06,35.88-17.01,83.84l26.36,0.07l19.23-21.52
	c0,0,14.59-76.65,21.82-91.01c0,0,31.32-59.83,31.39-83.8S834.47,529.95,834.47,529.95z"/>
<path class="st10" d="M911.21,510.99c0,0,6.9,105.47-0.36,131.81c0,0-0.11,40.74,16.61,62.36l28.79-9.51
	c0,0,0.34-124.62,7.67-174.93L911.21,510.99z"/>
<path class="st11" d="M773.79,840.42c0,0-14.84,34.37,14.65,36.91c29.49,2.54,24.66-29.42,24.66-29.42s-2.27-68.82,5.15-86.01
	l27.25-78.57l-49.14-5.05C796.35,678.28,783.68,818.33,773.79,840.42z"/>
<path class="st11" d="M908.98,833.42c0,0-12.42,46.66,14.62,44.28c0,0,24.56,7.44,19.78-44.18c0,0,10.13-110.57,15.07-117.93
	c0,0,4.98-22.11,4.99-27.02l-46.7-0.13C916.75,688.44,916.43,806.41,908.98,833.42z"/>
<path class="st0" d="M718.03,378.73"/>
<path class="st0" d="M718,379l12.21-2.38c0.33-0.22,0.66-0.25,0.94-0.17c49.16-11.5,66.52-36.55,66.52-36.55l26.51-42.34l28.38,8.52
	C808,375,788.92,378.64,788.92,378.64l-71.01,22.88c-9.91,3.19-20.5-0.3-26.02-8.58l-3.45-5.18l4.29-10.86l16.3-11.46l6.32,13.45
	c0.9-0.2,1.81-0.35,2.72-0.49"/>
<path class="st0" d="M954.84,333.76c0,0,11.81,62.35,16.48,107.89c4.67,45.55-0.24,88.68-0.24,88.68s-7.31,45.52,14.29,33.59
	c0,0,19.18-2.34,14.49-40.7c0,0,7.54-127-13.97-148.63c0,0-4.65-52.74-4.64-57.53S954.84,333.76,954.84,333.76z"/>
<path class="st7" d="M853.95,417.36l105.51-21.28c0,0,33.46,33.64,18.78,143.85c0,0-110.28,11.68-150.99-0.41
	C827.25,539.52,839.48,450.88,853.95,417.36z"/>
<path class="st12" d="M890.45,216.15c0,0,7.09,35.97-9.69,38.32l21.5,26.42l31.22-23.88c0,0-9.59-0.03-11.85-50.36L890.45,216.15z"
	/>
<path class="st13" d="M895.45,141.86c0,0-52.81,31.01-12.18,71.87c0,0,21.5,26.42,35.94,4.89c0,0,16.84-23.92,16.87-33.51
	C936.11,169.96,917.03,137.13,895.45,141.86z"/>
<path class="st14" d="M808.68,318.98l19.32-55.07c0,0,2.44-14.37,21.6-11.92l33.55,0.09c0,0,21.48,31.22,45.54,0.12l31.14,4.88
	c0,0,33.56-2.3,26.14,81.56l-31.16-0.09c0,0-0.02,7.19-9.63,14.35c0,0-4.9,38.33,14.26,43.18l-105.51,21.28
	c0,0,7.3-40.72,2.57-62.31c0,0-14.34-14.42-7.12-26.38l-14.41,11.94L808.68,318.98z"/>
<g>
	<g>
		<defs>
			<rect id="SVGID_1_" x="-462" y="408" width="288" height="576"/>
		</defs>
		<clipPath id="SVGID_2_">
			<use xlink:href="#SVGID_1_"  style="overflow:visible;"/>
		</clipPath>
		<rect x="-448.1" y="419.5" class="st15" width="92" height="92"/>
		<rect x="-448.1" y="534.75" class="st16" width="92" height="92"/>
		<rect x="-448.1" y="650" class="st17" width="92" height="92"/>
		<rect x="-448.1" y="765.25" class="st18" width="92" height="92"/>
		<rect x="-448.1" y="880.5" class="st19" width="92" height="92"/>
		<g style="clip-path:url(#SVGID_2_);">
			<text transform="matrix(1 0 0 1 -322 465)"><tspan x="0" y="0" style="font-family:'Montserrat-Bold'; font-size:12px;">#1</tspan><tspan x="13.34" y="0" style="font-family:'Montserrat-Bold'; font-size:12px;">F</tspan><tspan x="21.06" y="0" style="font-family:'Montserrat-Bold'; font-size:12px;">2</tspan><tspan x="28.02" y="0" style="font-family:'Montserrat-Bold'; font-size:12px;">4</tspan><tspan x="36.26" y="0" style="font-family:'Montserrat-Bold'; font-size:12px;">21</tspan></text>
		</g>
		<g style="clip-path:url(#SVGID_2_);">
			<text transform="matrix(1 0 0 1 -322 581.0039)"><tspan x="0" y="0" style="font-family:'Montserrat-Bold'; font-size:12px;">#08</tspan><tspan x="24.71" y="0" style="font-family:'Montserrat-Bold'; font-size:12px;">4</tspan><tspan x="32.69" y="0" style="font-family:'Montserrat-Bold'; font-size:12px;">15C</tspan></text>
		</g>
		<g style="clip-path:url(#SVGID_2_);">
			<text transform="matrix(1 0 0 1 -322 696)"><tspan x="0" y="0" style="font-family:'Montserrat-Bold'; font-size:12px;">#4</tspan><tspan x="16.91" y="0" style="font-family:'Montserrat-Bold'; font-size:12px;">0</tspan><tspan x="25.02" y="0" style="font-family:'Montserrat-Bold'; font-size:12px;">7</tspan><tspan x="31.74" y="0" style="font-family:'Montserrat-Bold'; font-size:12px;">A</tspan><tspan x="40.81" y="0" style="font-family:'Montserrat-Bold'; font-size:12px;">6</tspan><tspan x="48.41" y="0" style="font-family:'Montserrat-Bold'; font-size:12px;">7</tspan></text>
		</g>
		<g style="clip-path:url(#SVGID_2_);">
			<text transform="matrix(1 0 0 1 -322 810.9961)"><tspan x="0" y="0" style="font-family:'Montserrat-Bold'; font-size:12px;">#</tspan><tspan x="8.64" y="0" style="font-family:'Montserrat-Bold'; font-size:12px;">AAAAA</tspan><tspan x="55.98" y="0" style="font-family:'Montserrat-Bold'; font-size:12px;">A</tspan></text>
		</g>
		<g style="clip-path:url(#SVGID_2_);">
			<text transform="matrix(1 0 0 1 -322 925.9922)"><tspan x="0" y="0" style="font-family:'Montserrat-Bold'; font-size:12px;">#</tspan><tspan x="8.64" y="0" style="font-family:'Montserrat-Bold'; font-size:12px;">F</tspan><tspan x="16.36" y="0" style="font-family:'Montserrat-Bold'; font-size:12px;">2</tspan><tspan x="23.44" y="0" style="font-family:'Montserrat-Bold'; font-size:12px;">F</tspan><tspan x="31.16" y="0" style="font-family:'Montserrat-Bold'; font-size:12px;">2</tspan><tspan x="38.24" y="0" style="font-family:'Montserrat-Bold'; font-size:12px;">F</tspan><tspan x="45.97" y="0" style="font-family:'Montserrat-Bold'; font-size:12px;">2</tspan></text>
		</g>
	</g>
</g>
<g>
	<polygon class="st20" points="617.22,425.66 593.68,428.06 584.35,381.44 616.63,378.15 	"/>
	<path class="st20" d="M617.72,379.4l-34.18,3.47c-0.4,0.04-0.77-0.26-0.81-0.66l-0.06-0.55c-0.04-0.4,0.26-0.77,0.66-0.81
		l34.18-3.47c0.4-0.04,0.77,0.26,0.81,0.66l0.06,0.55C618.42,379,618.12,379.36,617.72,379.4z"/>
</g>
<g>
	<polygon class="st20" points="707.58,406.92 684,404.94 683.4,357.4 715.74,360.11 	"/>
	<path class="st20" d="M716.57,361.54l-34.23-2.87c-0.41-0.03-0.71-0.39-0.68-0.8l0.05-0.55c0.03-0.41,0.39-0.71,0.8-0.68
		l34.23,2.87c0.41,0.03,0.71,0.39,0.68,0.8l-0.05,0.55C717.34,361.27,716.98,361.57,716.57,361.54z"/>
</g>
<g>
	<path class="st6" d="M281.12,331c0,0-11.93,56.72-4.74,83.08l28.76,74.3l19.17-14.38l-14.38-38.35c0,0,4.79-38.35-7.19-59.92
		l14.38-31.16L281.12,331z"/>
</g>
<text transform="matrix(0.9973 0.0733 -0.0733 0.9973 344.539 333.8788)" class="st21 st22">OOO</text>
</svg>
